<svg width="57" height="12" viewBox="0 0 57 12" fill="none" xmlns="http://www.w3.org/2000/svg">
<g clip-path="url(#clip0_3203_53516)">
<path d="M15.1235 6.89685V5.09791H20.2565C20.9677 5.09791 21.3953 4.30214 21.0058 3.7032C20.2671 2.56669 18.9949 1.81113 17.545 1.79844C15.3352 1.77939 13.4535 3.55293 13.3371 5.77092C13.2101 8.1942 15.1278 10.1984 17.509 10.1984H21.1518V11.9974H17.509C14.0864 11.9974 11.3347 9.09791 11.5548 5.60796C11.7474 2.56034 14.2578 0.109547 17.2953 0.00372666C19.4733 -0.0724638 21.4016 1.02595 22.5023 2.71695C22.7817 3.14023 22.9426 3.65029 22.9426 4.19632C22.9426 5.68838 21.7403 6.89685 20.2565 6.89685H15.1235Z" fill="white"/>
<path d="M3.45231 3.8192e-10C1.54518 3.8192e-10 0 1.54497 0 3.44973C0 5.3545 1.54518 6.89947 3.45231 6.89947H7.04855C7.96084 6.89947 8.69956 7.63809 8.69956 8.54815C8.69956 9.4582 7.96084 10.1968 7.04855 10.1968H0V11.9958H7.04855C8.95568 11.9958 10.5009 10.4508 10.5009 8.54603C10.5009 6.64127 8.95568 5.0963 7.04855 5.0963H3.45231C2.54002 5.0963 1.8013 4.35767 1.8013 3.44762C1.8013 2.53757 2.54002 1.79894 3.45231 1.79894H9.60551V3.8192e-10H3.45231Z" fill="white"/>
<path d="M49.9514 3.8192e-10C48.0443 3.8192e-10 46.4991 1.54497 46.4991 3.44973C46.4991 5.3545 48.0443 6.89947 49.9514 6.89947H53.5477C54.46 6.89947 55.1987 7.63809 55.1987 8.54815C55.1987 9.4582 54.46 10.1968 53.5477 10.1968H46.4991V11.9958H53.5477C55.4548 11.9958 57 10.4508 57 8.54603C57 6.64127 55.4548 5.0963 53.5477 5.0963H49.9514C49.0392 5.0963 48.3004 4.35767 48.3004 3.44762C48.3004 2.53757 49.0392 1.79894 49.9514 1.79894H56.1046V3.8192e-10H49.9514Z" fill="white"/>
<path d="M27.5638 5.09791V6.89685H32.6968C34.1806 6.89685 35.3829 5.68838 35.3829 4.19632C35.3829 3.65029 35.222 3.14023 34.9426 2.71695C33.844 1.02595 31.9157 -0.0724638 29.7377 0.00372666C26.7002 0.109547 24.1899 2.56034 23.9972 5.60796C23.7771 9.09791 26.5288 11.9974 29.9515 11.9974H33.5943V10.1984H29.9515C27.5702 10.1984 25.6525 8.1942 25.7795 5.77092C25.8959 3.55293 27.7776 1.77939 29.9874 1.79844C31.4374 1.81113 32.7095 2.56669 33.4482 3.7032C33.8377 4.30214 33.4101 5.09791 32.6989 5.09791H27.5638Z" fill="white"/>
<path d="M37.2007 6C37.2007 2.71111 39.8466 0.042328 43.1232 3.8192e-10H45.0007V1.80317H43.21C40.888 1.79894 39.0041 3.67831 39.0041 6V12H37.2007V6Z" fill="white"/>
</g>
<defs>
<clipPath id="clip0_3203_53516">
<rect width="57" height="12" fill="white"/>
</clipPath>
</defs>
</svg>
