<svg width="16" height="16" viewBox="0 0 16 16" fill="none" xmlns="http://www.w3.org/2000/svg">
<path d="M5 9V8H3V9H5Z" fill="#004488"/>
<path d="M5 10V11H3V10H5Z" fill="#004488"/>
<path d="M9 8H7V9H9V8Z" fill="#004488"/>
<path d="M7 10H9V11H7V10Z" fill="#004488"/>
<path d="M13 9V8H11V9H13Z" fill="#004488"/>
<path d="M13 10V11H11V10H13Z" fill="#004488"/>
<path fill-rule="evenodd" clip-rule="evenodd" d="M3.5 0C3.22386 0 3 0.223858 3 0.5V2H2C0.895431 2 0 2.89543 0 4V14C0 15.1046 0.895431 16 2 16H14C15.1046 16 16 15.1046 16 14V4C16 2.89543 15.1046 2 14 2H13V0.5C13 0.223858 12.7761 0 12.5 0C12.2239 0 12 0.223858 12 0.5V2H4V0.5C4 0.223858 3.77614 0 3.5 0ZM15 5V4C15 3.44772 14.5523 3 14 3H2C1.44772 3 1 3.44772 1 4V5H15ZM1 6V14C1 14.5523 1.44772 15 2 15H14C14.5523 15 15 14.5523 15 14V6H1Z" fill="#004488"/>
<path d="M5 12V13H3V12H5Z" fill="#004488"/>
<path d="M7 12H9V13H7V12Z" fill="#004488"/>
<path d="M13 12V13H11V12H13Z" fill="#004488"/>
</svg>
