<svg width="12" height="12" viewBox="0 0 12 12" fill="none" xmlns="http://www.w3.org/2000/svg">
<path d="M4 4.5C4 4.22386 4.22386 4 4.5 4C4.77614 4 5 4.22386 5 4.5V8.5C5 8.77614 4.77614 9 4.5 9C4.22386 9 4 8.77614 4 8.5V4.5Z" fill="#004488"/>
<path d="M7 4.5C7 4.22386 7.22386 4 7.5 4C7.77614 4 8 4.22386 8 4.5V8.5C8 8.77614 7.77614 9 7.5 9C7.22386 9 7 8.77614 7 8.5V4.5Z" fill="#004488"/>
<path d="M2 3.5C2 3.22386 1.77614 3 1.5 3C1.22386 3 1 3.22386 1 3.5V10C1 11.1046 1.89543 12 3 12H9C10.1046 12 11 11.1046 11 10V3.5C11 3.22386 10.7761 3 10.5 3C10.2239 3 10 3.22386 10 3.5V10C10 10.5523 9.55228 11 9 11H3C2.44772 11 2 10.5523 2 10V3.5Z" fill="#004488"/>
<path d="M3 0C2.44772 0 2 0.447723 2 1H0.5C0.223846 1 0 1.22385 0 1.5C0 1.77615 0.223846 2 0.5 2H11.5C11.7762 2 12 1.77615 12 1.5C12 1.22385 11.7762 1 11.5 1H10C10 0.447723 9.55228 0 9 0H3Z" fill="#004488"/>
</svg>
