<svg width="16" height="16" viewBox="0 0 16 16" fill="none" xmlns="http://www.w3.org/2000/svg">
<path fill-rule="evenodd" clip-rule="evenodd" d="M9.87442 10.5808C8.82908 11.4657 7.47685 11.9992 6 11.9992C2.68629 11.9992 0 9.31308 0 5.9996C0 2.68611 2.68629 0 6 0C9.31371 0 12 2.68611 12 5.9996C12 7.47635 11.4664 8.82849 10.5815 9.87376L15.8536 15.1454C16.0488 15.3407 16.0488 15.6572 15.8536 15.8525C15.6583 16.0477 15.3417 16.0477 15.1464 15.8525L9.87442 10.5808ZM11 5.9996C11 8.76084 8.76142 10.9993 6 10.9993C3.23858 10.9993 1 8.76084 1 5.9996C1 3.23836 3.23858 0.999933 6 0.999933C8.76142 0.999933 11 3.23836 11 5.9996Z" fill="white"/>
</svg>
